<?xml version="1.0" encoding="UTF-8" standalone="no"?><svg xmlns="http://www.w3.org/2000/svg" xmlns:xlink="http://www.w3.org/1999/xlink" clip-rule="evenodd" stroke-miterlimit="10" viewBox="0 0 1024 768"><desc>SVG generated by Keynote</desc><defs></defs><g transform="matrix(1.00, 0.00, -0.00, -1.00, 0.0, 768.0)"><path d="M 0.0 768.0 L 1024.0 768.0 L 1024.0 0.0 L 0.0 0.0 Z M 0.0 768.0 " fill="#FEFFFF"></path><text xml:space="preserve" font-family="Helvetica-Light,Helvetica" font-size="80.0" fill="#000000" transform="matrix(1.00, 0.00, -0.00, -1.00, 196.3, 618.4)">T</text><text xml:space="preserve" font-family="Helvetica-Light,Helvetica" font-size="80.0" fill="#000000" transform="matrix(1.00, 0.00, -0.00, -1.00, 231.9, 618.4)">o</text><text xml:space="preserve" font-family="Helvetica-Light,Helvetica" font-size="80.0" fill="#000000" transform="matrix(1.00, 0.00, -0.00, -1.00, 276.4, 618.4)">d</text><text xml:space="preserve" font-family="Helvetica-Light,Helvetica" font-size="80.0" fill="#000000" transform="matrix(1.00, 0.00, -0.00, -1.00, 325.3, 618.4)">a</text><text xml:space="preserve" font-family="Helvetica-Light,Helvetica" font-size="80.0" fill="#000000" transform="matrix(1.00, 0.00, -0.00, -1.00, 369.8, 618.4)">y</text><text xml:space="preserve" font-family="Helvetica-Light,Helvetica" font-size="80.0" fill="#000000" transform="matrix(1.00, 0.00, -0.00, -1.00, 409.8, 618.4)">'</text><text xml:space="preserve" font-family="Helvetica-Light,Helvetica" font-size="80.0" fill="#000000" transform="matrix(1.00, 0.00, -0.00, -1.00, 427.5, 618.4)">s</text><text xml:space="preserve" font-family="Helvetica-Light,Helvetica" font-size="80.0" fill="#000000" transform="matrix(1.00, 0.00, -0.00, -1.00, 467.5, 618.4)"> </text><text xml:space="preserve" font-family="Helvetica-Light,Helvetica" font-size="80.0" fill="#000000" transform="matrix(1.00, 0.00, -0.00, -1.00, 489.8, 618.4)">S</text><text xml:space="preserve" font-family="Helvetica-Light,Helvetica" font-size="80.0" fill="#000000" transform="matrix(1.00, 0.00, -0.00, -1.00, 538.6, 618.4)">c</text><text xml:space="preserve" font-family="Helvetica-Light,Helvetica" font-size="80.0" fill="#000000" transform="matrix(1.00, 0.00, -0.00, -1.00, 583.1, 618.4)">h</text><text xml:space="preserve" font-family="Helvetica-Light,Helvetica" font-size="80.0" fill="#000000" transform="matrix(1.00, 0.00, -0.00, -1.00, 627.6, 618.4)">e</text><text xml:space="preserve" font-family="Helvetica-Light,Helvetica" font-size="80.0" fill="#000000" transform="matrix(1.00, 0.00, -0.00, -1.00, 672.1, 618.4)">d</text><text xml:space="preserve" font-family="Helvetica-Light,Helvetica" font-size="80.0" fill="#000000" transform="matrix(1.00, 0.00, -0.00, -1.00, 721.0, 618.4)">u</text><text xml:space="preserve" font-family="Helvetica-Light,Helvetica" font-size="80.0" fill="#000000" transform="matrix(1.00, 0.00, -0.00, -1.00, 765.4, 618.4)">l</text><text xml:space="preserve" font-family="Helvetica-Light,Helvetica" font-size="80.0" fill="#000000" transform="matrix(1.00, 0.00, -0.00, -1.00, 783.2, 618.4)">e</text><image xlink:href="C1537BFD719DD206E9F4244E25FB7763.png" width="1830.00" height="782.00" transform="matrix(0.56, 0.00, -0.00, -0.56, 0.0, 547.0)"></image></g></svg>