<?xml version="1.0" encoding="utf-8"?>
<!-- Generator: Adobe Illustrator 18.1.1, SVG Export Plug-In . SVG Version: 6.00 Build 0)  -->
<svg version="1.1" id="Layer_1" xmlns="http://www.w3.org/2000/svg" xmlns:xlink="http://www.w3.org/1999/xlink" x="0px" y="0px"
	 viewBox="-0.1 503.1 612.2 141" enable-background="new -0.1 503.1 612.2 141" xml:space="preserve">
<path fill="#FFFFFF" d="M230.5,628.3c-29.9,0-54.3-24.4-54.3-54.3c0-29.9,24.4-54.3,54.3-54.3c18.2,0,32.5,7.2,42.8,20l-18,14.7
	c-6.4-8.1-13.4-11.9-24.8-11.9c-17.1,0-30.1,14.3-30.1,31.2c0,17.1,13,31.2,30.1,31.2c8.6,0,15.2-1.5,20.4-5.3v-16.7h-25.5
	l10.1-19.6H274V611C263.7,622.9,248.3,628.3,230.5,628.3z"/>
<path fill="#FFFFFF" d="M396.6,574.1c0-29.9,24.4-54.3,54.3-54.3s54.3,24.4,54.3,54.3c0,29.9-24.4,54.3-54.3,54.3
	C420.8,628.3,396.6,604,396.6,574.1z M481,574.1c0-17.1-13-31.2-30.1-31.2s-30.1,14.3-30.1,31.2c0,17.1,13,31.2,30.1,31.2
	C468,605.3,481,591.2,481,574.1z"/>
<path fill="#FFFFFF" d="M522.3,627V520.9h23.9V627H522.3z"/>
<path fill="#FFFFFF" d="M542.7,574.3l37.1-53.2h27.5l-37.1,53.6l42,52.5h-29.7L542.7,574.3z"/>
<path fill="#FFFFFF" d="M360.8,582c12.3-4.6,20.4-16.3,20.4-29.4c0-17.4-14.3-31.6-31.6-31.6h-40v42.6h-12.1l-9.4,20h21.3V627h23.7
	V584h0.4l33,43.1h28.6L360.8,582z M347,564h-13.6v-21.1H347c6.4,0,11,4.8,11,10.5S353.3,564,347,564z"/>
<polygon fill="#2B2E7E" points="109.5,558.5 109.5,558.5 109.5,558.5 "/>
<path fill="#29ABE2" d="M146.6,562.4c-6.4,0-10.3-2.2-14.9-6.6c-3.7-3.5-7.2-9-11-14.7l0,0c-3.5,5.5-7,11.4-11,17.4l0,0l0,0
	c3.7,5.3,7.9,10.3,13.4,14.5c5.9-4.2,13.6-7,22.2-7c1.1,0,2,0,3.1,0.2v-4C147.5,562.4,147.1,562.4,146.6,562.4z"/>
<path fill="none" d="M37,560.5L37,560.5C37,560.5,37,560.7,37,560.5C37.2,560.7,37.2,560.5,37,560.5C37.2,560.5,37.2,560.5,37,560.5
	z"/>
<path fill="#FFFFFF" d="M37,560.5C37.2,560.5,37.2,560.5,37,560.5c4.2-5.7,7.5-11.4,10.8-16.7c0-0.2,0.2-0.2,0.2-0.4
	c-3.5-5.5-6.8-11.4-11-17.4c-4.2,5.9-7.7,12.1-11,17.4c0,0.2,0.2,0.4,0.4,0.7C29.5,549.3,33.1,555,37,560.5L37,560.5z"/>
<path fill="#29ABE2" d="M26.5,544.2c-0.2-0.2-0.2-0.4-0.4-0.7c-0.9,1.5-2,2.9-2.9,4.2c-3.3,4.8-6.6,8.6-10.1,11s-6.8,3.7-11.6,3.7
	c-0.4,0-1.1,0-1.5,0v3.7c9.4,0,17.4,3.3,23.7,8.1c2.2-1.5,4.2-3.1,5.9-4.8c2.6-2.6,5.1-5.7,7.5-8.6l-0.2-0.2
	C33.1,555,29.5,549.3,26.5,544.2z"/>
<path fill="#E90E8B" d="M98.5,541.1L98.5,541.1c-3.7,5.9-7.2,11.2-11,14.7c-4.6,4.4-8.6,6.4-14.9,6.6c-4.8,0-8.1-1.3-11.6-3.7
	c-3.3-2.4-6.8-6.2-10.1-11c-0.9-1.3-2-2.9-2.9-4.2c0,0.2-0.2,0.2-0.2,0.4c-3.3,5.3-6.6,11-10.8,16.5c0,0,0,0.2-0.2,0.2
	c2.2,3.1,4.6,5.9,7.5,8.6c1.8,1.8,3.7,3.5,5.9,4.8c6.4-4.8,14.3-8.1,23.7-8.1c8.6,0,16.3,2.6,22.2,7c5.5-4.2,9.7-9.2,13.4-14.5l0,0
	l0,0C105.6,552.6,102,546.4,98.5,541.1z"/>
<g>
	<path fill="#E90E8B" d="M28.2,578c-1.3-1.3-2.9-2.6-4.4-3.7c-5.9,4.2-13.6,7-22.2,7c-0.4,0-1.1,0-1.5,0v3.7c4.8,0,8.1,1.3,11.6,3.7
		c3.3,2.4,6.8,6.2,10.1,11c1.5,2.2,2.9,4.4,4.4,6.8c3.5-5.5,6.8-11.4,11-17.4C34.4,585.1,31.5,581.3,28.2,578z"/>
	<path fill="#E90E8B" d="M87.5,618.7c-4.6,4.4-8.6,6.4-14.9,6.6c-4.8,0-8.1-1.3-11.6-3.7c-3.3-2.4-6.8-6.2-10.1-11
		c-0.9-1.3-2-2.9-2.9-4.2c-3.3,5.5-6.8,11.4-11,17.1c2.2,3.1,4.6,5.9,7.5,8.6c6.6,6.6,16.3,11.9,27.7,11.9c0,0,0.2,0,0.4,0
		c8.8,0,16.5-2.9,22.4-7.2c6.2-4.4,10.5-9.9,14.5-15.6l0,0c-4-5.9-7.7-12.1-11-17.4C94.8,609.7,91.3,614.9,87.5,618.7z"/>
	<path fill="#E90E8B" d="M144.9,584.9c1.1,0,2.2,0,3.1,0.2v-4c-0.4,0-0.9,0-1.3,0h-0.2c-8.8,0-16.5-2.9-22.4-7.2
		c-0.4-0.2-0.9-0.7-1.1-0.9c-0.2,0-0.2,0.2-0.4,0.2c-5.3,3.7-9.4,8.6-13,13.4c0.4,0.7,1.1,1.3,1.5,2.2c3.5,5.1,6.6,10.1,9.4,14.9
		c3.1-4.8,6.2-9.2,9.4-12.3C134.5,587.1,138.5,585.1,144.9,584.9z"/>
	<path fill="#29ABE2" d="M23.2,610.6c-3.3,4.8-6.6,8.6-10.1,11s-6.8,3.7-11.6,3.7c-0.4,0-1.1,0-1.5,0v18.9c0.4,0,1.1,0,1.5,0
		c11.6,0,21.3-5.3,28.1-11.9c2.6-2.6,5.1-5.7,7.5-8.6c-4.2-5.7-7.7-11.6-11-17.1C25.2,607.7,24.3,609.2,23.2,610.6z"/>
	<path fill="#29ABE2" d="M109.5,621.3c4,5.7,8.3,11.2,14.5,15.6c5.9,4.4,13.8,7.2,22.4,7.2h0.2c0.4,0,0.9,0,1.3,0v-18.9
		c-0.4,0-0.9,0.2-1.5,0.2c-6.4,0-10.3-2.2-14.9-6.6c-3.7-3.5-7.2-9-11-14.7C117.2,609.2,113.7,615.4,109.5,621.3
		C109.5,621.1,109.5,621.3,109.5,621.3z"/>
	<path fill="#29ABE2" d="M52.6,599.6c3.3-4.8,6.6-8.6,10.1-11c3.5-2.4,6.8-3.7,11.6-3.7c6.4,0,10.3,2.2,14.9,6.6
		c3.3,3.1,6.4,7.5,9.4,12.3c3.1-4.8,6.2-9.9,9.4-14.9c0.4-0.7,1.1-1.3,1.5-2.2c-3.5-4.8-7.7-9.7-13-13.4c-0.2,0-0.2-0.2-0.4-0.2
		c-0.4,0.2-0.7,0.7-1.1,0.9c-5.9,4.4-13.8,7.2-22.4,7.2c0,0-0.2,0-0.4,0c-8.6,0-15.8-2.9-21.7-7c-1.5,1.1-3.1,2.4-4.4,3.7
		c-3.3,3.3-6.4,7-9,10.8c4.2,5.9,7.7,12.1,11,17.4C49.5,604,51.1,601.5,52.6,599.6z"/>
</g>
<g>
	<path fill="#E90E8B" d="M28.2,515.2c-6.8-6.8-16.3-12.1-28.1-11.9v18.9c4.8,0,8.1,1.3,11.6,3.7c3.3,2.4,6.8,6.2,10.1,11
		c1.5,2.2,2.9,4.4,4.4,6.8c3.5-5.5,6.8-11.4,11-17.4C34.4,522.5,31.5,518.7,28.2,515.2z"/>
</g>
<g>
	<path fill="#FFFFFF" d="M23.8,574.3c-6.4-4.8-14.3-8.1-23.7-8.1v15.2c0.4,0,1.1,0,1.5,0C10.2,581.3,17.9,578.5,23.8,574.3z"/>
	<path fill="#FFFFFF" d="M122.9,573c0.4,0.2,0.7,0.7,1.1,0.9c5.9,4.4,13.8,7.2,22.4,7.2h0.2c0.4,0,0.9,0,1.3,0v-14.9
		c-1.1,0-2-0.2-3.1-0.2C136.5,566,128.8,568.8,122.9,573z"/>
</g>
<path fill="#FFFFFF" d="M96.3,573c-5.9-4.2-13.6-7-22.2-7c-9.4,0-17.4,3.3-23.7,8.1c5.9,4.2,13.4,7,21.7,7c0,0,0.2,0,0.4,0
	c8.8,0,16.5-2.9,22.4-7.2C95.4,573.7,95.9,573.4,96.3,573z"/>
<g>
	<path fill="#FFFFFF" d="M26,606.2c3.3,5.5,6.8,11.4,11,17.1c4.2-5.7,7.7-11.6,11-17.1c-3.5-5.5-6.8-11.4-11-17.4
		C33.1,594.7,29.5,600.9,26,606.2z"/>
	<path fill="#FFFFFF" d="M109.5,621.1c4-5.9,7.7-12.1,11-17.4c-3.1-4.8-6.2-9.9-9.4-14.9c-0.4-0.7-1.1-1.3-1.5-2.2
		c-0.4,0.7-1.1,1.3-1.5,2.2c-3.5,5.1-6.6,10.1-9.4,14.9C102,609.2,105.6,615.4,109.5,621.1z"/>
</g>
<path fill="none" d="M109.5,524c0.2,0.2,0.2,0.2,0.4,0.4C109.7,524.4,109.7,524.2,109.5,524c-0.2,0-0.2,0.2-0.4,0.4
	C109.3,524.4,109.5,524.2,109.5,524z"/>
<path fill="#FFFFFF" d="M109.9,524.7c-0.2-0.2-0.2-0.4-0.4-0.4c0,0.2-0.2,0.2-0.4,0.4c-0.4,0.4-0.9,1.1-1.1,1.5
	c-3.3,4.8-6.4,9.9-9.2,14.5c0,0.2-0.2,0.2-0.2,0.4c3.5,5.5,7,11.4,11,17.4c4-5.9,7.7-12.1,11-17.4c0,0,0,0,0-0.2
	c-2.9-4.8-5.9-9.9-9.4-14.9C110.8,525.5,110.4,525.1,109.9,524.7z"/>
<path fill="#E90E8B" d="M144.9,503.4c-8.8,0-16.5,2.9-22.4,7.2c-5.3,3.7-9.4,8.6-13,13.4c0.2,0.2,0.2,0.4,0.4,0.7
	c0.4,0.4,0.7,1.1,1.1,1.5c3.5,5.1,6.6,10.1,9.4,14.9c0,0,0,0,0,0.2c3.1-4.8,6.2-9.2,9.4-12.3c4.6-4.4,8.6-6.4,14.9-6.6
	c1.1,0,2.2,0,3.1,0.2v-18.9C147.1,503.6,146,503.4,144.9,503.4z"/>
<path fill="#29ABE2" d="M109.1,524.4c0.2-0.2,0.2-0.4,0.4-0.7c-3.5-4.8-7.7-9.7-13-13.4c-5.9-4.4-13.8-7.2-22.4-7.2
	c-11.6,0-21.3,5.3-28.1,11.9c-3.3,3.3-6.4,7-9,10.8c4.2,5.9,7.7,12.1,11,17.4c1.5-2.4,2.9-4.6,4.4-6.8c3.3-4.8,6.6-8.6,10.1-11
	s6.8-3.7,11.6-3.7c6.4,0,10.3,2.2,14.9,6.6c3.3,3.1,6.4,7.5,9.4,12.3c0-0.2,0.2-0.2,0.2-0.4c2.9-4.6,5.9-9.7,9.2-14.5
	C108.4,525.5,108.8,525.1,109.1,524.4z"/>
</svg>
