<?xml version="1.0" encoding="utf-8"?>
<!-- Generator: Adobe Illustrator 18.1.1, SVG Export Plug-In . SVG Version: 6.00 Build 0)  -->
<svg version="1.1" id="Layer_1" xmlns="http://www.w3.org/2000/svg" xmlns:xlink="http://www.w3.org/1999/xlink" x="0px" y="0px"
	 viewBox="4.3 369.5 612.2 141" enable-background="new 4.3 369.5 612.2 141" xml:space="preserve">
<g>
	<path fill="#231F20" d="M234.9,494.7c-29.9,0-54.3-24.4-54.3-54.3c0-29.9,24.4-54.3,54.3-54.3c18.2,0,32.5,7.2,42.8,20l-18,14.7
		c-6.4-8.1-13.4-11.9-24.8-11.9c-17.1,0-30.1,14.3-30.1,31.2c0,17.1,13,31.2,30.1,31.2c8.6,0,15.2-1.5,20.4-5.3v-16.7h-25.5
		l10.1-19.6h38.4v47.4C268.1,489.2,252.7,494.7,234.9,494.7z"/>
	<path fill="#231F20" d="M401,440.5c0-29.9,24.4-54.3,54.3-54.3s54.3,24.4,54.3,54.3s-24.4,54.3-54.3,54.3
		C425.2,494.7,401,470.3,401,440.5z M485.3,440.5c0-17.1-13-31.2-30.1-31.2c-17.1,0-30.1,14.3-30.1,31.2c0,17.1,13,31.2,30.1,31.2
		C472.4,471.7,485.3,457.6,485.3,440.5z"/>
	<path fill="#231F20" d="M526.6,493.4V387.3h23.9v106.1H526.6z"/>
	<path fill="#231F20" d="M547.1,440.7l37.1-53.2h27.5l-37.1,53.6l42,52.5h-29.7L547.1,440.7z"/>
	<path fill="#231F20" d="M365.2,448.4c12.3-4.6,20.4-16.3,20.4-29.4c0-17.4-14.3-31.6-31.6-31.6h-40v42.6h-12.1l-9.4,20h21.3v43.5
		h23.7v-43.1h0.4l33,43.1h28.6L365.2,448.4z M351.3,430.4h-13.6v-21.1h13.6c6.4,0,11,4.8,11,10.5
		C362.3,425.7,357.7,430.4,351.3,430.4z"/>
	<g>
		<g>
			<g>
				<g>
					<polygon fill="#2B2E7E" points="113.9,424.9 113.9,424.9 113.9,424.9 					"/>
					<path fill="#29ABE2" d="M151,428.8c-6.4,0-10.3-2.2-14.9-6.6c-3.7-3.5-7.2-9-11-14.7l0,0c-3.5,5.5-7,11.4-11,17.4l0,0l0,0
						c3.7,5.3,7.9,10.3,13.4,14.5c5.9-4.2,13.6-7,22.2-7c1.1,0,2,0,3.1,0.2v-4C151.9,428.8,151.4,428.8,151,428.8z"/>
					<g>
						<path fill="none" d="M41.4,426.8L41.4,426.8C41.4,426.8,41.4,427.1,41.4,426.8C41.6,427.1,41.6,426.8,41.4,426.8
							C41.6,426.8,41.6,426.8,41.4,426.8z"/>
						<path fill="#2B2E7E" d="M41.4,426.8C41.6,426.8,41.6,426.8,41.4,426.8c4.2-5.7,7.5-11.4,10.8-16.7c0-0.2,0.2-0.2,0.2-0.4
							c-3.5-5.5-6.8-11.4-11-17.4c-4.2,5.9-7.7,12.1-11,17.4c0,0.2,0.2,0.4,0.4,0.7C33.9,415.6,37.4,421.4,41.4,426.8L41.4,426.8z"
							/>
						<path fill="#29ABE2" d="M30.8,410.6c-0.2-0.2-0.2-0.4-0.4-0.7c-0.9,1.5-2,2.9-2.9,4.2c-3.3,4.8-6.6,8.6-10.1,11
							s-6.8,3.7-11.6,3.7c-0.7,0-1.1,0-1.5,0v3.7c9.4,0,17.4,3.3,23.7,8.1c2.2-1.5,4.2-3.1,5.9-4.8c2.6-2.6,5.1-5.7,7.5-8.6
							l-0.2-0.2C37.4,421.4,33.9,415.6,30.8,410.6z"/>
						<path fill="#E90E8B" d="M102.9,407.5L102.9,407.5c-3.7,5.9-7.2,11.2-11,14.7c-4.6,4.4-8.6,6.4-14.9,6.6
							c-4.8,0-8.1-1.3-11.6-3.7c-3.3-2.4-6.8-6.2-10.1-11c-0.9-1.3-2-2.9-2.9-4.2c0,0-0.2,0.2-0.2,0.4c-3.3,5.3-6.6,11-10.8,16.5
							c0,0,0,0.2-0.2,0.2c2.2,3.1,4.6,5.9,7.5,8.6c1.8,1.8,3.7,3.5,5.9,4.8c6.4-4.8,14.3-8.1,23.7-8.1c8.6,0,16.3,2.6,22.2,7
							c5.5-4.2,9.7-9.2,13.4-14.5l0,0l0,0C109.9,418.9,106.4,413,102.9,407.5z"/>
					</g>
				</g>
				<g>
					<path fill="#E90E8B" d="M32.6,444.4c-1.3-1.3-2.9-2.6-4.4-3.7c-5.9,4.2-13.6,7-22.2,7c-0.4,0-1.1,0-1.5,0v3.7
						c4.8,0,8.1,1.3,11.6,3.7c3.3,2.4,6.8,6.2,10.1,11c1.5,2.2,2.9,4.4,4.4,6.8c3.5-5.5,6.8-11.4,11-17.4
						C38.8,451.5,35.9,447.7,32.6,444.4z"/>
					<path fill="#E90E8B" d="M91.9,485.1c-4.6,4.4-8.6,6.4-14.9,6.6c-4.8,0-8.1-1.3-11.6-3.7c-3.3-2.4-6.8-6.2-10.1-11
						c-0.9-1.3-2-2.9-2.9-4.2c-3.3,5.5-6.8,11.4-11,17.1c2.2,3.1,4.6,5.9,7.5,8.6c6.6,6.6,16.3,11.9,27.7,11.9c0,0,0.2,0,0.4,0
						c8.8,0,16.5-2.9,22.4-7.2c6.2-4.4,10.5-9.9,14.5-15.6l0,0c-4-5.9-7.7-12.1-11-17.4C99.2,476.1,95.7,481.3,91.9,485.1z"/>
					<path fill="#E90E8B" d="M149.3,451.2c1.1,0,2.2,0,3.1,0.2v-4c-0.4,0-0.9,0-1.3,0h-0.2c-8.8,0-16.5-2.9-22.4-7.2
						c-0.4-0.2-0.9-0.7-1.1-0.9c-0.2,0-0.2,0.2-0.4,0.2c-5.3,3.7-9.4,8.6-13,13.4c0.4,0.7,1.1,1.3,1.5,2.2
						c3.5,5.1,6.6,10.1,9.4,14.9c3.1-4.8,6.2-9.2,9.4-12.3C138.9,453.4,142.9,451.5,149.3,451.2z"/>
					<path fill="#29ABE2" d="M27.6,476.9c-3.3,4.8-6.6,8.6-10.1,11s-6.8,3.7-11.6,3.7c-0.7,0-1.1,0-1.5,0v18.9c0.4,0,1.1,0,1.5,0
						c11.6,0,21.3-5.3,28.1-11.9c2.6-2.6,5.1-5.7,7.5-8.6c-4.2-5.7-7.7-11.6-11-17.1C29.5,474.1,28.7,475.6,27.6,476.9z"/>
					<path fill="#29ABE2" d="M113.9,487.7c4,5.7,8.3,11.2,14.5,15.6c5.9,4.4,13.8,7.2,22.4,7.2h0.2c0.4,0,0.9,0,1.3,0v-18.9
						c-0.4,0-0.9,0.2-1.5,0.2c-6.4,0-10.3-2.2-14.9-6.6c-3.7-3.5-7.2-9-11-14.7C121.6,475.6,118.1,481.8,113.9,487.7L113.9,487.7z"
						/>
					<path fill="#29ABE2" d="M57,465.9c3.3-4.8,6.6-8.6,10.1-11c3.5-2.4,6.8-3.7,11.6-3.7c6.4,0,10.3,2.2,14.9,6.6
						c3.3,3.1,6.4,7.5,9.4,12.3c3.1-4.8,6.2-9.9,9.4-14.9c0.4-0.7,1.1-1.3,1.5-2.2c-3.5-4.8-7.7-9.7-13-13.4c-0.2,0-0.2-0.2-0.4-0.2
						c-0.4,0.2-0.7,0.7-1.1,0.9c-5.9,4.4-13.8,7.2-22.4,7.2c0,0-0.2,0-0.4,0c-8.6,0-15.8-2.9-21.7-7c-1.5,1.1-3.1,2.4-4.4,3.7
						c-3.3,3.3-6.4,7-9,10.8c4.2,5.9,7.7,12.1,11,17.4C53.9,470.3,55.5,467.9,57,465.9z"/>
				</g>
			</g>
			<g>
				<path fill="#E90E8B" d="M32.6,381.6c-6.8-6.8-16.3-12.1-28.1-11.9v18.9c4.8,0,8.1,1.3,11.6,3.7c3.3,2.4,6.8,6.2,10.1,11
					c1.5,2.2,2.9,4.4,4.4,6.8c3.5-5.5,6.8-11.4,11-17.4C38.8,388.8,35.9,385.1,32.6,381.6z"/>
			</g>
		</g>
		<g>
			<path fill="#2B2E7E" d="M28.2,440.7c-6.4-4.8-14.3-8.1-23.7-8.1v15.2c0.4,0,1.1,0,1.5,0C14.6,447.7,22.1,444.9,28.2,440.7z"/>
			<path fill="#2B2E7E" d="M127.3,439.4c0.4,0.2,0.7,0.7,1.1,0.9c5.9,4.4,13.8,7.2,22.4,7.2h0.2c0.4,0,0.9,0,1.3,0v-14.9
				c-1.1,0-2-0.2-3.1-0.2C140.9,432.3,133.2,435.2,127.3,439.4z"/>
		</g>
		<path fill="#2B2E7E" d="M100.7,439.4c-5.9-4.2-13.6-7-22.2-7c-9.4,0-17.4,3.3-23.7,8.1c5.9,4.2,13.4,7,21.7,7c0,0,0.2,0,0.4,0
			c8.8,0,16.5-2.9,22.4-7.2C99.8,440,100.3,439.8,100.7,439.4z"/>
		<g>
			<path fill="#2B2E7E" d="M30.4,472.5c3.3,5.5,6.8,11.4,11,17.1c4.2-5.7,7.7-11.6,11-17.1c-3.5-5.5-6.8-11.4-11-17.4
				C37.4,461.1,33.9,467.3,30.4,472.5z"/>
			<path fill="#2B2E7E" d="M113.9,487.5c4-5.9,7.7-12.1,11-17.4c-3.1-4.8-6.2-9.9-9.4-14.9c-0.4-0.7-1.1-1.3-1.5-2.2
				c-0.4,0.7-1.1,1.3-1.5,2.2c-3.5,5.1-6.6,10.1-9.4,14.9C106.4,475.6,109.9,481.8,113.9,487.5z"/>
		</g>
		<g>
			<path fill="none" d="M113.9,390.4c0.2,0.2,0.2,0.2,0.4,0.4C114.1,390.8,114.1,390.6,113.9,390.4c-0.2,0-0.2,0.2-0.4,0.4
				C113.7,390.8,113.9,390.6,113.9,390.4z"/>
			<path fill="#2B2E7E" d="M114.3,391c-0.2-0.2-0.2-0.4-0.4-0.4c0,0.2-0.2,0.2-0.4,0.4c-0.4,0.4-0.9,1.1-1.1,1.5
				c-3.3,4.8-6.4,9.9-9.2,14.5c0,0.2-0.2,0.2-0.2,0.4c3.5,5.5,7,11.4,11,17.4c4-5.9,7.7-12.1,11-17.4c0,0,0,0,0-0.2
				c-2.9-4.8-5.9-9.9-9.4-14.9C115.2,391.9,114.8,391.5,114.3,391z"/>
			<path fill="#E90E8B" d="M149.3,369.7c-8.8,0-16.5,2.9-22.4,7.2c-5.3,3.7-9.4,8.6-13,13.4c0.2,0.2,0.2,0.4,0.4,0.7
				c0.4,0.4,0.7,1.1,1.1,1.5c3.5,5.1,6.6,10.1,9.4,14.9c0,0,0,0,0,0.2c3.1-4.8,6.2-9.2,9.4-12.3c4.6-4.4,8.6-6.4,14.9-6.6
				c1.1,0,2.2,0,3.1,0.2v-18.9C151.4,370,150.4,369.7,149.3,369.7z"/>
			<path fill="#29ABE2" d="M113.4,390.8c0.2-0.2,0.2-0.4,0.4-0.7c-3.5-4.8-7.7-9.7-13-13.4c-5.9-4.4-13.8-7.2-22.4-7.2
				c-11.6,0-21.3,5.3-28.1,11.9c-3.3,3.3-6.4,7-9,10.8c4.2,5.9,7.7,12.1,11,17.4c1.5-2.4,2.9-4.6,4.4-6.8c3.3-4.8,6.6-8.6,10.1-11
				c3.5-2.4,6.8-3.7,11.6-3.7c6.4,0,10.3,2.2,14.9,6.6c3.3,3.1,6.4,7.5,9.4,12.3c0-0.2,0.2-0.2,0.2-0.4c2.9-4.6,5.9-9.7,9.2-14.5
				C112.8,391.9,113.2,391.5,113.4,390.8z"/>
		</g>
	</g>
</g>
</svg>
