<?xml version="1.0" encoding="utf-8"?>
<!-- Generator: Adobe Illustrator 18.1.1, SVG Export Plug-In . SVG Version: 6.00 Build 0)  -->
<svg version="1.1" id="Layer_1" xmlns="http://www.w3.org/2000/svg" xmlns:xlink="http://www.w3.org/1999/xlink" x="0px" y="0px"
	 viewBox="0 0 85.9 78.9" style="enable-background:new 0 0 85.9 78.9;" xml:space="preserve">
<style type="text/css">
	.st0{fill:#00A1DF;}
</style>
<g>
	<g>
		<path class="st0" d="M77,61.1c-1.2,0-2.3,0.2-3.4,0.7l-8.3-14.9c2.4-1.6,4.1-4.3,4.1-7.5c0-4.9-4-8.9-8.9-8.9
			c-1.4,0-2.7,0.3-3.8,0.9L48,16.2c-0.5,0.4-1,0.7-1.6,0.9L55,32.4c-2.1,1.6-3.5,4.2-3.5,7c0,2.5,1,4.8,2.7,6.4l-7.6,16.1
			c-1.1-0.5-2.3-0.8-3.6-0.8c-1,0-2,0.2-3,0.5l-8.3-15.9c1.6-1.6,2.7-3.9,2.7-6.3c0-2.9-1.4-5.4-3.5-7l8.6-15.3
			c-0.6-0.2-1.1-0.6-1.6-0.9l-8.5,15.2c-1.2-0.6-2.5-0.9-3.8-0.9c-4.9,0-8.9,4-8.9,8.9c0,3.1,1.6,5.9,4.1,7.5l-8.3,14.9
			c-1-0.4-2.2-0.7-3.4-0.7C4,61.1,0,65.1,0,70c0,4.9,4,8.9,8.9,8.9c4.9,0,8.9-4,8.9-8.9c0-3.1-1.5-5.8-3.9-7.4l8.4-14.9
			c1,0.4,2.1,0.6,3.2,0.6c1.7,0,3.4-0.5,4.8-1.4l8.1,15.5C35.7,64,34,66.8,34,70c0,4.9,4,8.9,8.9,8.9s8.9-4,8.9-8.9
			c0-3-1.5-5.6-3.7-7.2L55.7,47c1.4,0.9,3,1.4,4.7,1.4c1.1,0,2.2-0.2,3.2-0.6L72,62.6c-2.3,1.6-3.9,4.3-3.9,7.4c0,4.9,4,8.9,8.9,8.9
			c4.9,0,8.9-4,8.9-8.9C85.9,65.1,81.9,61.1,77,61.1z"/>
	</g>
	<path class="st0" d="M34,8.9c0,4.9,4,8.9,8.9,8.9c4.9,0,8.9-4,8.9-8.9S47.8,0,42.9,0C38,0,34,4,34,8.9z"/>
</g>
</svg>
