<?xml version="1.0" encoding="UTF-8" standalone="no"?><svg xmlns="http://www.w3.org/2000/svg" xmlns:xlink="http://www.w3.org/1999/xlink" clip-rule="evenodd" stroke-miterlimit="10" viewBox="0 0 1024 768"><desc>SVG generated by Keynote</desc><defs></defs><g transform="matrix(1.00, 0.00, -0.00, -1.00, 0.0, 768.0)"><path d="M 0.0 768.0 L 1024.0 768.0 L 1024.0 0.0 L 0.0 0.0 Z M 0.0 768.0 " fill="#FEFFFF"></path><g><clipPath id="clip0x6100006acb40"><path d="M 212.0 5.0 L 812.0 5.0 L 812.0 763.0 L 212.0 763.0 Z M 212.0 5.0 "></path></clipPath><g clip-path="url(#clip0x6100006acb40)"><path d="M 212.0 763.0 L 812.0 763.0 L 812.0 5.0 L 212.0 5.0 Z M 212.0 763.0 " fill="#FEFFFF" fill-opacity="0.00"></path></g></g><g><clipPath id="clip0x6100004be9c0"><path d="M 212.1 763.0 L 811.7 763.0 L 811.7 5.0 L 212.1 5.0 Z M 212.1 763.0 "></path></clipPath><g clip-path="url(#clip0x6100004be9c0)"><g><clipPath id="clip0x6100006aace0"><path d="M 212.1 5.0 L 811.7 5.0 L 811.7 763.0 L 212.1 763.0 Z M 212.1 5.0 "></path></clipPath><g clip-path="url(#clip0x6100006aace0)"><image xlink:href="../../966ED924-F5DB-474C-81AA-C9DC473AA312/assets/E2A2183476D1E25C95E30D01AE3ED17F.png" width="1198.00" height="1516.00" transform="matrix(0.50, 0.00, -0.00, -0.50, 212.1, 763.0)"></image></g></g></g></g></g></svg>